<svg xmlns="http://www.w3.org/2000/svg" xmlns:xlink="http://www.w3.org/1999/xlink" xmlns:xodm="http://www.corel.com/coreldraw/odm/2003"><symbol id="arrow" viewBox="0 0 12 7">
<path opacity="0.8" d="M1 1L6 6L11 1" stroke="#A1A0A0" stroke-width="1.4" stroke-linecap="round" stroke-linejoin="round"/>
</symbol><symbol id="bottom-arrow" viewBox="0 0 12 7">
<path opacity="0.8" d="M1 1L6 6L11 1" stroke="#A1A0A0" stroke-width="1.4" stroke-linecap="round" stroke-linejoin="round"/>
</symbol><symbol id="burger" viewBox="0 0 23 21">
<path d="M0 0H23V2.1H0V0ZM0 9.45H23V11.55H0V9.45ZM0 18.9H23V21H0V18.9Z" fill="#434242"/>
</symbol><symbol id="close" viewBox="0 0 10 10">
<path d="M0.260016 9.76998H2.02702C2.16802 9.76998 2.30302 9.70698 2.39602 9.59898L5.00002 6.49398L7.60402 9.59898C7.69402 9.70698 7.82902 9.76998 7.97302 9.76998H9.74002C9.94402 9.76998 10.055 9.53298 9.92302 9.37698L6.25402 4.99998L9.92602 0.622981C10.058 0.466981 9.94702 0.22998 9.74302 0.22998H7.97602C7.83502 0.22998 7.70002 0.292981 7.60702 0.400981L5.00002 3.50598L2.39602 0.400981C2.30602 0.292981 2.17102 0.22998 2.02702 0.22998H0.260016C0.0560159 0.22998 -0.0549843 0.466981 0.0770157 0.622981L3.74602 4.99998L0.0770157 9.37698C0.0474465 9.41175 0.0284767 9.45428 0.0223578 9.49951C0.0162389 9.54474 0.0232279 9.59078 0.0424957 9.63216C0.0617636 9.67354 0.0925005 9.70852 0.131057 9.73295C0.169614 9.75738 0.214372 9.77023 0.260016 9.76998Z" fill="#434242"/>
</symbol><symbol id="tehno-sk-logo" viewBox="0 0 5729.58 1007.86">
    <linearGradient id="linear-gradient" gradientUnits="userSpaceOnUse" x1="4017" y1="709.31" x2="4017" y2="298.56">
      <stop offset="0%" stop-opacity="1" stop-color="#FE1F10"/>
      <stop offset="100%" stop-opacity="1" stop-color="#FF7600"/>
    </linearGradient>
  <path class="fil0" fill="#434342" fill-rule="nonzero" d="M-0 194.89l0 194.74 158.33 0 0 397.93 216.66 0 0 -397.93 158.33 0 0 -194.74 -533.32 0zm802.05 381l216.67 0 0 -169.33 -216.67 0 0 -42.34 233.33 0 0 -169.33 -449.98 0 0 592.67 466.65 0 0 -169.33 -250 0 0 -42.34zm468.75 -84.66l-166.67 296.33 249.99 0 66.67 -177.8 66.66 177.8 249.99 0 -166.65 -296.33 158.33 -296.34 -250 0 -58.33 160.87 -58.33 -160.87 -249.99 0 158.33 296.34zm735.37 -296.34l-216.65 0 0 592.67 216.65 0 0 -203.2 133.33 0 0 203.2 216.67 0 0 -592.67 -216.67 0 0 203.2 -133.33 0 0 -203.2zm818.75 309.04c0,59.26 -41.66,101.6 -91.66,101.6 -50,0 -91.67,-42.34 -91.67,-101.6 0,-59.27 41.67,-101.6 91.67,-101.6 50,0 91.66,42.33 91.66,101.6zm233.33 0c0,-173.57 -133.33,-309.04 -324.99,-309.04 -191.67,0 -324.99,135.47 -324.99,309.04 0,173.56 133.32,309.03 324.99,309.03 191.66,0 324.99,-135.47 324.99,-309.03z"/>
  <path class="fil0" fill="#434342" fill-rule="nonzero" d="M4537.95 503.93c0,173.56 133.32,309.03 308.32,309.03 158.33,0 233.33,-93.13 233.33,-93.13l-100 -160.87c0,0 -50,46.57 -108.33,46.57 -58.33,0 -100,-42.34 -100,-101.6 0,-59.27 41.67,-101.6 100,-101.6 58.33,0 108.33,46.56 108.33,46.56l100 -160.87c0,0 -75,-93.13 -233.33,-93.13 -175,0 -308.32,135.47 -308.32,309.04zm1174.97 -296.34l-250 0 -100 237.07 0 -237.07 -216.65 0 0 592.67 216.65 0 0 -237.07 116.67 237.07 249.99 0 -174.99 -296.33 158.33 -296.34z"/>
  <path class="fil1" fill="#434342" d="M3430.7 843.28c-93.37,-103.46 -201.67,-250.76 -201.67,-394.57 0,-193.16 156.98,-350.16 350.15,-350.16 193.16,0 350.16,157 350.16,350.16 0,143.82 -108.3,291.05 -201.65,394.54l-148.48 164.61 -148.51 -164.58z"/>
  <path class="fil1" fill="#434342" d="M4165.48 164.56c93.37,103.46 201.69,250.76 201.69,394.57 0,193.17 -157,350.17 -350.17,350.17 -193.17,0 -350.16,-157 -350.16,-350.17 0,-143.81 108.31,-291.07 201.66,-394.55l148.48 -164.58 148.5 164.56z"/>
  <path class="fil2" fill="#0C83F2" d="M3579.18 709.29c-60.1,-66.62 -150.15,-182.72 -150.15,-260.58 0,-82.78 67.36,-150.16 150.15,-150.16 82.79,0 150.17,67.37 150.17,150.16 0,77.86 -90.06,193.95 -150.17,260.58z"/>
  <path class="fil3" fill="url(&apos;#linear-gradient&apos;)" d="M4017 298.55c-60.11,66.62 -150.17,182.72 -150.17,260.58 0,82.79 67.38,150.16 150.17,150.16 82.79,0 150.16,-67.37 150.16,-150.16 0,-77.86 -90.05,-193.96 -150.16,-260.58z"/>
</symbol></svg>