<svg width="10" height="10" viewBox="0 0 10 10" fill="none" xmlns="http://www.w3.org/2000/svg">
<path d="M0.260016 9.76998H2.02702C2.16802 9.76998 2.30302 9.70698 2.39602 9.59898L5.00002 6.49398L7.60402 9.59898C7.69402 9.70698 7.82902 9.76998 7.97302 9.76998H9.74002C9.94402 9.76998 10.055 9.53298 9.92302 9.37698L6.25402 4.99998L9.92602 0.622981C10.058 0.466981 9.94702 0.22998 9.74302 0.22998H7.97602C7.83502 0.22998 7.70002 0.292981 7.60702 0.400981L5.00002 3.50598L2.39602 0.400981C2.30602 0.292981 2.17102 0.22998 2.02702 0.22998H0.260016C0.0560159 0.22998 -0.0549843 0.466981 0.0770157 0.622981L3.74602 4.99998L0.0770157 9.37698C0.0474465 9.41175 0.0284767 9.45428 0.0223578 9.49951C0.0162389 9.54474 0.0232279 9.59078 0.0424957 9.63216C0.0617636 9.67354 0.0925005 9.70852 0.131057 9.73295C0.169614 9.75738 0.214372 9.77023 0.260016 9.76998Z" fill="#434242"/>
</svg>
