<?xml version="1.0" encoding="UTF-8"?>
<!DOCTYPE svg PUBLIC "-//W3C//DTD SVG 1.1//EN" "http://www.w3.org/Graphics/SVG/1.1/DTD/svg11.dtd">
<!-- Creator: CorelDRAW -->
<svg xmlns="http://www.w3.org/2000/svg" xml:space="preserve" width="1000px" height="1000px" version="1.1" style="shape-rendering:geometricPrecision; text-rendering:geometricPrecision; image-rendering:optimizeQuality; fill-rule:evenodd; clip-rule:evenodd"
viewBox="0 0 134 134"
  xmlns:xlink="http://www.w3.org/1999/xlink"
  xmlns:xodm="http://www.corel.com/coreldraw/odm/2003">
  <defs>
  <style type="text/css">
    <![CDATA[
    .fil3 {fill:none}
    .fil0 {fill:#434342}
    .fil1 {fill:#0C83F2}
    .fil2 {fill:url(#id0)}
    ]]>
  </style>
  <linearGradient id="id0" gradientUnits="userSpaceOnUse" x1="92.42" y1="90.85" x2="92.42" y2="43.15">
    <stop offset="0" style="stop-opacity:1; stop-color:#FE1F10"/>
    <stop offset="1" style="stop-opacity:1; stop-color:#FF7600"/>
  </linearGradient>
  </defs>
  <g id="Layer_x0020_1">
  <metadata id="CorelCorpID_0Corel-Layer"/>
  <g id="_105553162232192">
    <g>
    <path class="fil0" d="M24.33 106.41c-10.84,-12.02 -23.41,-29.12 -23.41,-45.82 0,-22.43 18.23,-40.67 40.66,-40.67 22.43,0 40.66,18.24 40.66,40.67 0,16.7 -12.58,33.8 -23.42,45.82l-17.24 19.11 -17.25 -19.11z"/>
    <path class="fil0" d="M109.66 27.59c10.85,12.01 23.43,29.12 23.43,45.82 0,22.43 -18.24,40.67 -40.67,40.67 -22.43,0 -40.66,-18.24 -40.66,-40.67 0,-16.7 12.58,-33.8 23.42,-45.82l17.24 -19.11 17.24 19.11z"/>
    <path class="fil1" d="M41.58 90.85c-6.98,-7.74 -17.44,-21.22 -17.44,-30.26 0,-9.62 7.82,-17.44 17.44,-17.44 9.61,0 17.44,7.82 17.44,17.44 0,9.04 -10.46,22.52 -17.44,30.26z"/>
    <path class="fil2" d="M92.42 43.15c-6.98,7.74 -17.44,21.22 -17.44,30.26 0,9.62 7.83,17.44 17.44,17.44 9.62,0 17.44,-7.82 17.44,-17.44 0,-9.04 -10.46,-22.52 -17.44,-30.26z"/>
    </g>
    <rect class="fil3" width="134" height="134"/>
  </g>
  </g>
</svg>
